<svg width="173" height="70" viewBox="0 0 173 70" fill="none" xmlns="http://www.w3.org/2000/svg">
<g filter="url(#filter0_d_908:971)">
<circle cx="35" cy="31" r="30.5" stroke="white" stroke-opacity="0.5"/>
<circle cx="66" cy="31" r="30.5" stroke="white" stroke-opacity="0.5"/>
<path d="M39.1083 45L37.3443 39.708H25.6263L23.8623 45H17.6043L27.8943 15.6H35.0763L45.4083 45H39.1083ZM27.4743 34.29H35.5383L31.5063 22.278L27.4743 34.29ZM52.5147 27.612C53.0187 26.268 53.8447 25.26 54.9927 24.588C56.1687 23.916 57.4707 23.58 58.8987 23.58V29.628C57.2467 29.432 55.7627 29.768 54.4467 30.636C53.1587 31.504 52.5147 32.946 52.5147 34.962V45H47.0967V24H52.5147V27.612ZM73.7394 29.208H68.9934V37.944C68.9934 38.672 69.1754 39.204 69.5394 39.54C69.9034 39.876 70.4354 40.072 71.1354 40.128C71.8354 40.156 72.7034 40.142 73.7394 40.086V45C70.0154 45.42 67.3834 45.07 65.8434 43.95C64.3314 42.83 63.5754 40.828 63.5754 37.944V29.208H59.9214V24H63.5754V19.758L68.9934 18.12V24H73.7394V29.208Z" fill="#FFBCA2"/>
<path d="M116.001 30.3C116.001 34.108 114.797 37.412 112.389 40.212L115.413 43.362L111.297 47.016L108.105 43.698C105.837 44.958 103.373 45.588 100.713 45.588C96.4849 45.588 92.8869 44.118 89.9189 41.178C86.9509 38.21 85.4669 34.584 85.4669 30.3C85.4669 26.016 86.9509 22.404 89.9189 19.464C92.8869 16.496 96.4849 15.012 100.713 15.012C104.941 15.012 108.539 16.496 111.507 19.464C114.503 22.404 116.001 26.016 116.001 30.3ZM100.713 39.918C101.805 39.918 102.897 39.736 103.989 39.372L99.1589 34.332L103.275 30.678L108.441 36.054C109.617 34.374 110.205 32.456 110.205 30.3C110.205 27.5 109.295 25.19 107.475 23.37C105.655 21.55 103.401 20.64 100.713 20.64C98.0249 20.64 95.7709 21.55 93.9509 23.37C92.1309 25.19 91.2209 27.5 91.2209 30.3C91.2209 33.072 92.1309 35.368 93.9509 37.188C95.7709 39.008 98.0249 39.918 100.713 39.918ZM133.178 24H138.596V45H133.178V42.648C131.862 44.608 129.776 45.588 126.92 45.588C124.624 45.588 122.72 44.818 121.208 43.278C119.724 41.738 118.982 39.61 118.982 36.894V24H124.4V36.222C124.4 37.622 124.778 38.7 125.534 39.456C126.29 40.184 127.298 40.548 128.558 40.548C129.958 40.548 131.078 40.114 131.918 39.246C132.758 38.378 133.178 37.076 133.178 35.34V24ZM145.332 21.48C144.436 21.48 143.652 21.158 142.98 20.514C142.336 19.842 142.014 19.058 142.014 18.162C142.014 17.266 142.336 16.482 142.98 15.81C143.652 15.138 144.436 14.802 145.332 14.802C146.256 14.802 147.04 15.138 147.684 15.81C148.356 16.482 148.692 17.266 148.692 18.162C148.692 19.058 148.356 19.842 147.684 20.514C147.04 21.158 146.256 21.48 145.332 21.48ZM142.644 45V24H148.062V45H142.644ZM158.701 39.918H168.025V45H151.435V41.388L160.297 29.082H151.855V24H167.605V27.612L158.701 39.918Z" fill="white"/>
</g>
<defs>
<filter id="filter0_d_908:971" x="0" y="0" width="172.025" height="70" filterUnits="userSpaceOnUse" color-interpolation-filters="sRGB">
<feFlood flood-opacity="0" result="BackgroundImageFix"/>
<feColorMatrix in="SourceAlpha" type="matrix" values="0 0 0 0 0 0 0 0 0 0 0 0 0 0 0 0 0 0 127 0" result="hardAlpha"/>
<feOffset dy="4"/>
<feGaussianBlur stdDeviation="2"/>
<feComposite in2="hardAlpha" operator="out"/>
<feColorMatrix type="matrix" values="0 0 0 0 0 0 0 0 0 0 0 0 0 0 0 0 0 0 0.25 0"/>
<feBlend mode="normal" in2="BackgroundImageFix" result="effect1_dropShadow_908:971"/>
<feBlend mode="normal" in="SourceGraphic" in2="effect1_dropShadow_908:971" result="shape"/>
</filter>
</defs>
</svg>
