<svg width="28" height="28" viewBox="0 0 28 28" fill="none" xmlns="http://www.w3.org/2000/svg">
<path d="M10.0048 6.21251C10.153 6.28393 10.2781 6.3957 10.3657 6.53499C10.4533 6.67429 10.4999 6.83546 10.5 7.00001V21C10.4998 21.1647 10.4531 21.3259 10.3653 21.4652C10.2775 21.6045 10.1522 21.7162 10.0038 21.7875C9.85541 21.8588 9.6899 21.8868 9.5263 21.8682C9.3627 21.8496 9.20766 21.7853 9.079 21.6825L4.94375 18.375H0.875C0.642936 18.375 0.420376 18.2828 0.256282 18.1187C0.0921872 17.9546 0 17.7321 0 17.5V10.5C0 10.2679 0.0921872 10.0454 0.256282 9.88129C0.420376 9.7172 0.642936 9.62501 0.875 9.62501H4.94375L9.079 6.31751C9.20775 6.21459 9.36296 6.15013 9.52674 6.13155C9.69052 6.11298 9.85622 6.14104 10.0048 6.21251ZM8.75 8.82001L5.796 11.1825C5.64112 11.3068 5.44857 11.3747 5.25 11.375H1.75V16.625H5.25C5.44857 16.6254 5.64112 16.6932 5.796 16.8175L8.75 19.18V8.82001ZM22.4945 9.88051C22.576 9.96179 22.6406 10.0583 22.6847 10.1647C22.7289 10.271 22.7516 10.3849 22.7516 10.5C22.7516 10.6151 22.7289 10.7291 22.6847 10.8354C22.6406 10.9417 22.576 11.0382 22.4945 11.1195L19.6123 14L22.4945 16.8805C22.6588 17.0448 22.7511 17.2677 22.7511 17.5C22.7511 17.7324 22.6588 17.9552 22.4945 18.1195C22.3302 18.2838 22.1074 18.3761 21.875 18.3761C21.6426 18.3761 21.4198 18.2838 21.2555 18.1195L18.375 15.2373L15.4945 18.1195C15.3302 18.2838 15.1074 18.3761 14.875 18.3761C14.6426 18.3761 14.4198 18.2838 14.2555 18.1195C14.0912 17.9552 13.9989 17.7324 13.9989 17.5C13.9989 17.2677 14.0912 17.0448 14.2555 16.8805L17.1378 14L14.2555 11.1195C14.1741 11.0382 14.1096 10.9416 14.0656 10.8353C14.0216 10.729 13.9989 10.6151 13.9989 10.5C13.9989 10.385 14.0216 10.271 14.0656 10.1647C14.1096 10.0584 14.1741 9.96186 14.2555 9.88051C14.4198 9.71621 14.6426 9.6239 14.875 9.6239C14.9901 9.6239 15.104 9.64657 15.2103 9.69059C15.3166 9.73462 15.4131 9.79916 15.4945 9.88051L18.375 12.7628L21.2555 9.88051C21.3368 9.79902 21.4333 9.73437 21.5396 9.69026C21.6459 9.64615 21.7599 9.62345 21.875 9.62345C21.9901 9.62345 22.1041 9.64615 22.2104 9.69026C22.3167 9.73437 22.4132 9.79902 22.4945 9.88051Z" fill="white" fill-opacity="0.6"/>
</svg>
